# xmcd CD database file
#
# Track frame offsets:
#	150
#	26939
#	49991
#	74711
#	95320
#	114110
#	134564
#	155469
#	181778
#	204540
#	230100
#	251667
#	275146
#	296328
#	322983
#
# Disc length: 4579 seconds
#
# Revision: 2
# Processed by: cddbd v1.5.1PL0 Copyright (c) Steve Scherf et al.
# Submitted via: CDex 1.51
#
DISCID=e411e10f
DTITLE=Mr. Children - Mr.Children 1992−1995
DYEAR=1900
DGENRE=JPop
TTITLE0=君がいた夏
TTITLE1=星になれたら
TTITLE2=抱きしめたい
TTITLE3=Replay
TTITLE4=LOVE
TTITLE5=my life
TTITLE6=CROSS ROAD
TTITLE7=innocent world
TTITLE8=Dance Dance Dance
TTITLE9=雨のち晴れ
TTITLE10=Over
TTITLE11=Tomorrow never knows
TTITLE12=everybody goes〜秩序のない現代にドロップキック〜
TTITLE13=【es】〜Theme of es〜
TTITLE14=シーソーゲーム〜勇敢な恋の歌〜
EXTD=
EXTT0=
EXTT1=
EXTT2=
EXTT3=
EXTT4=
EXTT5=
EXTT6=
EXTT7=
EXTT8=
EXTT9=
EXTT10=
EXTT11=
EXTT12=
EXTT13=
EXTT14=
PLAYORDER=
